<svg width="100" height="100" viewBox="0 0 100 100" fill="none" xmlns="http://www.w3.org/2000/svg">
<path d="M10.0001 32.8885V76.0311H89.9996V32.8885H53.1252H46.5556H10.0001ZM0 32.8885C0 27.6 4.48425 23.301 10.0001 23.301H46.2754H73.8678H89.9996C95.5157 23.301 100 27.6 100 32.8885V76.0311C100 81.3196 95.5157 85.6188 89.9996 85.6188H10.0001C4.48425 85.6188 0 81.3196 0 76.0311V32.8885ZM20.0001 90.4127H80.0001C82.7654 90.4127 84.9999 92.555 84.9999 95.2061C84.9999 97.8577 82.7654 100 80.0001 100H20.0001C17.2344 100 14.9999 97.8577 14.9999 95.2061C14.9999 92.555 17.2344 90.4127 20.0001 90.4127Z" fill="#DBDBDB"/>
<path d="M66.9185 55.3398H62.6901C60.3499 55.3398 58.4603 53.5733 58.4603 51.3867V47.4338H71.1492V51.3867C71.1492 53.5733 69.2583 55.3398 66.9185 55.3398ZM58.4603 43.4813V3.95252C58.4603 1.76593 60.3499 5.36442e-07 62.6901 5.36442e-07H79.6083C81.9481 5.36442e-07 83.8384 1.76593 83.8384 3.95252V11.2536C83.8384 15.5266 82.596 19.7274 80.2433 23.3958C78.4331 26.2123 77.2687 29.35 76.833 32.6111L75.841 40.0228C75.5771 41.999 73.7798 43.4813 71.639 43.4813H58.4603ZM28.349 43.4813C26.221 43.4813 24.4102 41.999 24.1456 40.0228L23.1678 32.6111C22.7313 29.35 21.5684 26.2123 19.7579 23.3958C17.4048 19.7274 16.1616 15.5266 16.1616 11.2536V3.95252C16.1616 1.76593 18.0526 5.36442e-07 20.3913 5.36442e-07H37.3105C39.6505 5.36442e-07 41.5412 1.76593 41.5412 3.95252V43.4813H28.349ZM41.5412 51.3867C41.5412 53.5733 39.6505 55.3398 37.3105 55.3398H33.0815C30.7415 55.3398 28.8508 53.5733 28.8508 51.3867V47.4338H41.5412V51.3867ZM45.7707 43.4813V23.301H50H54.2304V43.4813H45.7707Z" fill="#9FCE15"/>
</svg>
